<svg width="35" height="41" viewBox="0 0 35 41" fill="none" xmlns="http://www.w3.org/2000/svg">
<path d="M20.3634 0C9.11116 0 0 9.1756 0 20.4919C0 31.8081 9.11116 40.9837 20.3634 40.9837C25.8848 40.9837 30.8868 38.7699 34.5586 35.1838C35.0142 34.7355 35.1326 34.0403 34.8411 33.4731C34.5495 32.9059 33.9208 32.5857 33.2922 32.6955C32.3993 32.851 31.4882 32.9333 30.5497 32.9333C21.721 32.9333 14.5596 25.7246 14.5596 16.8326C14.5596 10.8131 17.8396 5.57122 22.6959 2.80848C23.2517 2.4883 23.5341 1.84793 23.3974 1.22585C23.2608 0.603778 22.7323 0.137222 22.0946 0.0823335C21.5206 0.0365927 20.9465 0.00914801 20.3634 0.00914801V0Z" fill="white"/>
</svg>
