<svg width="40" height="41" viewBox="0 0 40 41" fill="none" xmlns="http://www.w3.org/2000/svg">
<path d="M28.241 0.259043C28.6316 0.423082 28.9128 0.774594 28.9909 1.1886L30.5454 9.61707L38.9738 11.1637C39.3878 11.2418 39.7393 11.523 39.9034 11.9136C40.0674 12.3042 40.0205 12.7494 39.7784 13.1009L34.9119 20.1624L39.7784 27.2161C40.0205 27.5676 40.0674 28.0128 39.9034 28.4034C39.7393 28.794 39.3878 29.0752 38.9738 29.1533L30.5454 30.7078L28.9909 39.1362C28.9128 39.5502 28.6316 39.9017 28.241 40.0658C27.8504 40.2298 27.4052 40.183 27.0537 39.9408L20 35.0743L12.9463 39.9408C12.5948 40.183 12.1496 40.2298 11.759 40.0658C11.3684 39.9017 11.0872 39.5502 11.0091 39.1362L9.45465 30.7078L1.02618 29.1533C0.612179 29.0752 0.260667 28.794 0.0966286 28.4034C-0.0674102 28.0128 -0.020542 27.5676 0.22161 27.2161L5.08809 20.1624L0.22161 13.1087C-0.020542 12.7572 -0.0674102 12.312 0.0966286 11.9214C0.260667 11.5309 0.612179 11.2496 1.02618 11.1715L9.45465 9.61707L11.0091 1.1886C11.0872 0.774594 11.3684 0.423082 11.759 0.259043C12.1496 0.0950043 12.5948 0.141873 12.9463 0.384025L20 5.25051L27.0537 0.384025C27.4052 0.141873 27.8504 0.0950043 28.241 0.259043ZM12.5011 20.1624C12.5011 18.1736 13.2911 16.2662 14.6975 14.8599C16.1038 13.4536 18.0112 12.6635 20 12.6635C21.9888 12.6635 23.8962 13.4536 25.3025 14.8599C26.7089 16.2662 27.4989 18.1736 27.4989 20.1624C27.4989 22.1513 26.7089 24.0586 25.3025 25.4649C23.8962 26.8713 21.9888 27.6613 20 27.6613C18.0112 27.6613 16.1038 26.8713 14.6975 25.4649C13.2911 24.0586 12.5011 22.1513 12.5011 20.1624ZM29.9986 20.1624C29.9986 17.5106 28.9451 14.9675 27.07 13.0924C25.195 11.2173 22.6518 10.1639 20 10.1639C17.3482 10.1639 14.805 11.2173 12.93 13.0924C11.0549 14.9675 10.0014 17.5106 10.0014 20.1624C10.0014 22.8142 11.0549 25.3574 12.93 27.2325C14.805 29.1076 17.3482 30.161 20 30.161C22.6518 30.161 25.195 29.1076 27.07 27.2325C28.9451 25.3574 29.9986 22.8142 29.9986 20.1624Z" fill="white"/>
</svg>
